<?xml version="1.0" encoding="utf-8"?>
<!-- Generator: Adobe Illustrator 25.0.1, SVG Export Plug-In . SVG Version: 6.00 Build 0)  -->
<svg version="1.1" id="Capa_1" xmlns="http://www.w3.org/2000/svg" xmlns:xlink="http://www.w3.org/1999/xlink" x="0px" y="0px"
	 viewBox="0 0 1200 1200" style="enable-background:new 0 0 1200 1200;" xml:space="preserve">
<style type="text/css">
	.st0{fill:#4895EF;}
</style>
<g>
	<polygon class="st0" points="5,1200 5,1066.6 798.4,1066.6 798.4,400 401.6,400 401.6,666.7 269.4,666.7 269.4,533.3 269.4,266.6 
		798.4,266.6 930.6,266.6 930.6,533.3 930.6,1066.6 930.6,1200 	"/>
	<polygon class="st0" points="5,0 1195,0 1195,1066.6 1195,1200 1062.8,1200 1062.8,1066.6 1062.8,133.3 137.2,133.3 137.2,800 
		533.9,800 533.9,533.3 666.1,533.3 666.1,800 666.1,933.3 666.1,933.3 137.2,933.3 5,933.3 5,800 	"/>
</g>
</svg>
