<?xml version="1.0" encoding="utf-8"?>
<!-- Generator: Adobe Illustrator 25.0.1, SVG Export Plug-In . SVG Version: 6.00 Build 0)  -->
<svg version="1.1" id="Capa_1" xmlns="http://www.w3.org/2000/svg" xmlns:xlink="http://www.w3.org/1999/xlink" x="0px" y="0px"
	 viewBox="0 0 1200 1200" style="enable-background:new 0 0 1200 1200;" xml:space="preserve">
<style type="text/css">
	.st0{fill-rule:evenodd;clip-rule:evenodd;fill:#20B2FF;}
	.st1{fill:none;stroke:#20B2FF;stroke-width:0.5669;stroke-miterlimit:22.9256;}
	.st2{fill-rule:evenodd;clip-rule:evenodd;fill:#0AD4FD;}
	.st3{fill:none;stroke:#0AD4FD;stroke-width:0.5669;stroke-miterlimit:22.9256;}
	.st4{fill-rule:evenodd;clip-rule:evenodd;fill:#7E70EA;}
	.st5{fill:none;stroke:#7E70EA;stroke-width:0.5669;stroke-miterlimit:22.9256;}
	.st6{fill-rule:evenodd;clip-rule:evenodd;fill:#6685EE;}
	.st7{fill:none;stroke:#6685EE;stroke-width:0.5669;stroke-miterlimit:22.9256;}
	.st8{fill-rule:evenodd;clip-rule:evenodd;fill:#5197F1;}
	.st9{fill:none;stroke:#5197F1;stroke-width:0.5669;stroke-miterlimit:22.9256;}
	.st10{fill:#6685EE;}
</style>
<g>
	<g>
		<path class="st0" d="M858.9,205.1c22.7-48.9,46.8-97.9,54.7-151.1c2.7-18.4,7.4-31.8,13.6-41.9L439.7,12l75,325
			c-0.3-2.7-0.6-5.6-0.8-8.6c24.5-22.5,81.8-27.2,126.9-33.1L620,205.1H858.9z"/>
		<path class="st1" d="M858.9,205.1c22.7-48.9,46.8-97.9,54.7-151.1c2.7-18.4,7.4-31.8,13.6-41.9L439.7,12l75,325
			c-0.3-2.7-0.6-5.6-0.8-8.6c24.5-22.5,81.8-27.2,126.9-33.1L620,205.1H858.9z"/>
		<g>
			<path class="st2" d="M761.8,589.6l42.3-183.3H666.5l-25.6-111c-45.1,5.9-102.3,10.6-126.9,33.1l0.8,8.6l58.3,252.6H761.8z"/>
			<path class="st3" d="M761.8,589.6l42.3-183.3H666.5l-25.6-111c-45.1,5.9-102.3,10.6-126.9,33.1l0.8,8.6l58.3,252.6H761.8z"/>
			<path class="st4" d="M979.5,957.3L1032,730c-86.9-18.3-135.3-49.7-146.7-73.9l-28,121.3H570.5c-2.8,49.3-6.7,117.8-19.7,179.7
				L979.5,957.3z"/>
			<path class="st5" d="M979.5,957.3L1032,730c-86.9-18.3-135.3-49.7-146.7-73.9l-28,121.3H570.5c-2.8,49.3-6.7,117.8-19.7,179.7
				L979.5,957.3z"/>
			<path class="st6" d="M550.9,957.1c13-62,16.8-130.4,19.7-179.7h-79.4L456.2,626c-38,3.1-17.7,14.3-70.6,20.8
				c-28.1,3.5-59.5,9.5-90.3,14.6l68,295.6L550.9,957.1z"/>
			<path class="st7" d="M550.9,957.1c13-62,16.8-130.4,19.7-179.7h-79.4L456.2,626c-38,3.1-17.7,14.3-70.6,20.8
				c-28.1,3.5-59.5,9.5-90.3,14.6l68,295.6L550.9,957.1z"/>
			<path class="st4" d="M456.2,626L314.4,12H2.3l44.6,193.2h143.4l105,456.3c30.8-5.1,62.2-11.1,90.3-14.6
				C438.5,640.3,418.2,629.1,456.2,626z"/>
			<path class="st5" d="M456.2,626L314.4,12H2.3l44.6,193.2h143.4l105,456.3c30.8-5.1,62.2-11.1,90.3-14.6
				C438.5,640.3,418.2,629.1,456.2,626z"/>
			<path class="st8" d="M1032,730l165.7-717.7l-270.5-0.1c-6.3,10.1-10.9,23.5-13.6,41.9c-7.8,53.2-32,102.3-54.7,151.1h130.5
				l-98.1,425l-6,25.9C896.7,680.2,945.1,711.6,1032,730z"/>
			<path class="st9" d="M1032,730l165.7-717.7l-270.5-0.1c-6.3,10.1-10.9,23.5-13.6,41.9c-7.8,53.2-32,102.3-54.7,151.1h130.5
				l-98.1,425l-6,25.9C896.7,680.2,945.1,711.6,1032,730z"/>
		</g>
	</g>
	<g>
		<circle class="st10" cx="887.8" cy="1096.7" r="91.4"/>
		<circle class="st10" cx="431" cy="1119.5" r="68.5"/>
	</g>
</g>
</svg>
