<svg xmlns="http://www.w3.org/2000/svg" xmlns:xlink="http://www.w3.org/1999/xlink" id="Capa_1" x="0" y="0" version="1.1" viewBox="0 0 1200 1200" xml:space="preserve" style="enable-background:new 0 0 1200 1200"><style type="text/css">.st0{fill:#4895ef}</style><g><polygon points="5 1200 5 1066.6 798.4 1066.6 798.4 400 401.6 400 401.6 666.7 269.4 666.7 269.4 533.3 269.4 266.6 798.4 266.6 930.6 266.6 930.6 533.3 930.6 1066.6 930.6 1200" class="st0"/><polygon points="5 0 1195 0 1195 1066.6 1195 1200 1062.8 1200 1062.8 1066.6 1062.8 133.3 137.2 133.3 137.2 800 533.9 800 533.9 533.3 666.1 533.3 666.1 800 666.1 933.3 666.1 933.3 137.2 933.3 5 933.3 5 800" class="st0"/></g></svg>