<svg xmlns="http://www.w3.org/2000/svg" xmlns:xlink="http://www.w3.org/1999/xlink" id="Capa_1" x="0" y="0" version="1.1" viewBox="0 0 124.3 23.5" xml:space="preserve" style="enable-background:new 0 0 124.3 23.5"><style type="text/css">.st0{fill-rule:evenodd;clip-rule:evenodd;fill:#20b2ff}.st1{fill:none;stroke:#20b2ff;stroke-width:.5669;stroke-miterlimit:22.9256}.st2{fill-rule:evenodd;clip-rule:evenodd;fill:#0ad4fd}.st3{fill:none;stroke:#0ad4fd;stroke-width:.5669;stroke-miterlimit:22.9256}.st4{fill-rule:evenodd;clip-rule:evenodd;fill:#7e70ea}.st5{fill:none;stroke:#7e70ea;stroke-width:.5669;stroke-miterlimit:22.9256}.st6{fill-rule:evenodd;clip-rule:evenodd;fill:#6685ee}.st7{fill:none;stroke:#6685ee;stroke-width:.5669;stroke-miterlimit:22.9256}.st8{fill-rule:evenodd;clip-rule:evenodd;fill:#5197f1}.st9{fill:none;stroke:#5197f1;stroke-width:.5669;stroke-miterlimit:22.9256}.st10{fill:#6685ee}</style><g><g><g><path d="M25.3,4c0.4-1,0.9-1.9,1.1-3c0.1-0.4,0.1-0.6,0.3-0.8l-9.6,0l1.5,6.4c0-0.1,0-0.1,0-0.2 C19,5.9,20.1,5.9,21,5.7L20.6,4H25.3z" class="st0"/><path d="M25.3,4c0.4-1,0.9-1.9,1.1-3c0.1-0.4,0.1-0.6,0.3-0.8l-9.6,0l1.5,6.4c0-0.1,0-0.1,0-0.2 C19,5.9,20.1,5.9,21,5.7L20.6,4H25.3z" class="st1"/><g><path d="M23.4,11.5l0.8-3.6h-2.7L21,5.7c-0.9,0.1-2,0.2-2.5,0.7l0,0.2l1.2,5H23.4z" class="st2"/><path d="M23.4,11.5l0.8-3.6h-2.7L21,5.7c-0.9,0.1-2,0.2-2.5,0.7l0,0.2l1.2,5H23.4z" class="st3"/><path d="M27.7,18.8l1-4.5c-1.7-0.4-2.7-1-2.9-1.5l-0.6,2.4h-5.7c-0.1,1-0.1,2.3-0.4,3.5L27.7,18.8z" class="st4"/><path d="M27.7,18.8l1-4.5c-1.7-0.4-2.7-1-2.9-1.5l-0.6,2.4h-5.7c-0.1,1-0.1,2.3-0.4,3.5L27.7,18.8z" class="st5"/><path d="M19.2,18.8c0.3-1.2,0.3-2.6,0.4-3.5H18l-0.7-3c-0.7,0.1-0.3,0.3-1.4,0.4c-0.6,0.1-1.2,0.2-1.8,0.3l1.3,5.8 L19.2,18.8z" class="st6"/><path d="M19.2,18.8c0.3-1.2,0.3-2.6,0.4-3.5H18l-0.7-3c-0.7,0.1-0.3,0.3-1.4,0.4c-0.6,0.1-1.2,0.2-1.8,0.3l1.3,5.8 L19.2,18.8z" class="st7"/><path d="M17.3,12.3L14.5,0.2H8.4L9.3,4h2.8l2.1,9c0.6-0.1,1.2-0.2,1.8-0.3C17,12.5,16.6,12.3,17.3,12.3z" class="st4"/><path d="M17.3,12.3L14.5,0.2H8.4L9.3,4h2.8l2.1,9c0.6-0.1,1.2-0.2,1.8-0.3C17,12.5,16.6,12.3,17.3,12.3z" class="st5"/><path d="M28.7,14.3L32,0.2l-5.3,0c-0.1,0.2-0.2,0.5-0.3,0.8c-0.2,1.1-0.6,2-1.1,3h2.6l-1.9,8.4l-0.1,0.5 C26,13.3,27,14,28.7,14.3z" class="st8"/><path d="M28.7,14.3L32,0.2l-5.3,0c-0.1,0.2-0.2,0.5-0.3,0.8c-0.2,1.1-0.6,2-1.1,3h2.6l-1.9,8.4l-0.1,0.5 C26,13.3,27,14,28.7,14.3z" class="st9"/></g></g><g><circle cx="25.9" cy="21.5" r="1.8" class="st10"/><circle cx="16.8" cy="22" r="1.4" class="st10"/></g></g><g><g><path d="M42,3.5h2l4.1,10.8h-2l-1-2.9h-4.3l-1,2.9h-1.9L42,3.5z M41.4,10h3.3L43,5.3h0L41.4,10z" class="st10"/><path d="M46.8,3.5h8.6v1.6H52v9.1h-1.9V5.1h-3.4V3.5z" class="st10"/><path d="M57.4,3.5h1.9v4.3h4.9V3.5H66v10.8h-1.9V9.4h-4.9v4.9h-1.9V3.5z" class="st10"/><path d="M68.2,3.5h7.7v1.6H70v2.8h5.4v1.5H70v3.2H76v1.6h-7.8V3.5z" class="st10"/><path d="M78.1,3.5h2l4.9,7.9h0V3.5h1.8v10.8h-2l-4.9-7.9h0v7.9h-1.8V3.5z" class="st10"/><path d="M88.9,3.5h4.4c3.3,0,4.7,2.4,4.7,5.4c0,3-1.4,5.4-4.7,5.4h-4.4V3.5z M90.8,12.7h1.8c2.9,0,3.6-1.7,3.6-3.8 S95.5,5,92.6,5h-1.8V12.7z" class="st10"/><path d="M102.5,3.5h2l4.1,10.8h-2l-1-2.9h-4.3l-1,2.9h-1.9L102.5,3.5z M101.9,10h3.3l-1.6-4.6h0L101.9,10z" class="st10"/><path d="M107.3,3.5h8.6v1.6h-3.4v9.1h-1.9V5.1h-3.4V3.5z" class="st10"/></g><g><path d="M38,16.6h2.4v0.5h-1.8V18h1.7v0.5h-1.7v1h1.8v0.5H38V16.6z" class="st10"/><path d="M44,18.4h1.4v0.5H44V18.4z" class="st10"/><path d="M51.3,17.7C51.2,17.3,51,17,50.5,17c-0.7,0-1,0.6-1,1.3c0,0.6,0.3,1.3,1,1.3c0.5,0,0.8-0.4,0.8-0.9h0.6 c0,0.8-0.6,1.3-1.4,1.3c-1,0-1.6-0.8-1.6-1.7c0-1,0.6-1.7,1.6-1.7c0.8,0,1.3,0.4,1.4,1.1H51.3z" class="st10"/><path d="M56.4,18.3c0,1-0.6,1.7-1.6,1.7c-1,0-1.6-0.8-1.6-1.7c0-1,0.6-1.7,1.6-1.7C55.8,16.5,56.4,17.3,56.4,18.3z M53.8,18.3c0,0.6,0.3,1.3,1,1.3c0.7,0,1-0.6,1-1.3c0-0.6-0.3-1.3-1-1.3C54.1,17,53.8,17.6,53.8,18.3z" class="st10"/><path d="M57.9,16.6h0.8l0.9,2.6h0l0.9-2.6h0.8v3.3h-0.6v-2.6h0l-0.9,2.6h-0.5l-0.9-2.6h0v2.6h-0.6V16.6z" class="st10"/><path d="M62.9,16.6h0.8l0.9,2.6h0l0.9-2.6h0.8v3.3h-0.6v-2.6h0l-0.9,2.6h-0.5l-0.9-2.6h0v2.6h-0.6V16.6z" class="st10"/><path d="M68,16.6h2.4v0.5h-1.8V18h1.7v0.5h-1.7v1h1.8v0.5H68V16.6z" class="st10"/><path d="M71.9,16.6h1.6c0.7,0,1.1,0.3,1.1,0.9c0,0.6-0.4,0.8-0.5,0.8v0c0.2,0,0.5,0.2,0.5,0.7 c0,0.4,0.1,0.7,0.2,0.9h-0.6C74,19.8,74,19.6,74,19.4c0-0.6-0.1-0.9-0.7-0.9h-0.9v1.4h-0.6V16.6z M72.5,18.1h1 c0.4,0,0.6-0.2,0.6-0.5c0-0.4-0.3-0.5-0.6-0.5h-0.9V18.1z" class="st10"/><path d="M78.3,17.7C78.2,17.3,78,17,77.5,17c-0.7,0-1,0.6-1,1.3c0,0.6,0.3,1.3,1,1.3c0.5,0,0.8-0.4,0.8-0.9h0.6 c0,0.8-0.6,1.3-1.4,1.3c-1,0-1.6-0.8-1.6-1.7c0-1,0.6-1.7,1.6-1.7c0.8,0,1.3,0.4,1.4,1.1H78.3z" class="st10"/><path d="M80.4,16.6h2.4v0.5H81V18h1.7v0.5H81v1h1.8v0.5h-2.4V16.6z" class="st10"/><path d="M86.9,18.8c0,0.5,0.4,0.7,0.8,0.7c0.5,0,0.7-0.3,0.7-0.5c0-0.3-0.1-0.4-0.3-0.4c-0.2-0.1-0.5-0.1-1-0.3 c-0.6-0.2-0.7-0.5-0.7-0.8c0-0.7,0.6-1,1.2-1c0.7,0,1.3,0.4,1.3,1.1h-0.6c0-0.4-0.3-0.6-0.7-0.6c-0.3,0-0.6,0.1-0.6,0.4 c0,0.2,0.2,0.4,0.4,0.4c0.1,0,0.8,0.2,1,0.3c0.4,0.1,0.6,0.5,0.6,0.8c0,0.7-0.7,1-1.3,1c-0.8,0-1.4-0.4-1.4-1.2H86.9z" class="st10"/><path d="M93.4,18.3c0,1-0.6,1.7-1.6,1.7c-1,0-1.6-0.8-1.6-1.7c0-1,0.6-1.7,1.6-1.7C92.8,16.5,93.4,17.3,93.4,18.3z M90.8,18.3c0,0.6,0.3,1.3,1,1.3s1-0.6,1-1.3c0-0.6-0.3-1.3-1-1.3S90.8,17.6,90.8,18.3z" class="st10"/><path d="M94.9,16.6h0.6v2.8h1.7v0.5h-2.3V16.6z" class="st10"/><path d="M98.5,16.6h0.6v1.9c0,0.4,0,1,0.8,1c0.8,0,0.8-0.5,0.8-1v-1.9h0.6v2.1c0,0.9-0.5,1.3-1.4,1.3 c-0.8,0-1.4-0.4-1.4-1.3V16.6z" class="st10"/><path d="M102.5,16.6h2.7v0.5h-1.1v2.8h-0.6v-2.8h-1.1V16.6z" class="st10"/><path d="M106.5,16.6h0.6v3.3h-0.6V16.6z" class="st10"/><path d="M111.7,18.3c0,1-0.6,1.7-1.6,1.7c-1,0-1.6-0.8-1.6-1.7c0-1,0.6-1.7,1.6-1.7 C111.1,16.5,111.7,17.3,111.7,18.3z M109.1,18.3c0,0.6,0.3,1.3,1,1.3s1-0.6,1-1.3c0-0.6-0.3-1.3-1-1.3S109.1,17.6,109.1,18.3z" class="st10"/><path d="M113.2,16.6h0.6l1.5,2.5h0v-2.5h0.6v3.3h-0.6l-1.5-2.4h0v2.4h-0.6V16.6z" class="st10"/></g></g></g></svg>