<svg xmlns="http://www.w3.org/2000/svg" xmlns:xlink="http://www.w3.org/1999/xlink" id="Capa_1" x="0" y="0" version="1.1" viewBox="0 0 1200 1200" xml:space="preserve" style="enable-background:new 0 0 1200 1200"><style type="text/css">.st0{fill-rule:evenodd;clip-rule:evenodd;fill:#20b2ff}.st1{fill:none;stroke:#20b2ff;stroke-width:.5669;stroke-miterlimit:22.9256}.st2{fill-rule:evenodd;clip-rule:evenodd;fill:#0ad4fd}.st3{fill:none;stroke:#0ad4fd;stroke-width:.5669;stroke-miterlimit:22.9256}.st4{fill-rule:evenodd;clip-rule:evenodd;fill:#7e70ea}.st5{fill:none;stroke:#7e70ea;stroke-width:.5669;stroke-miterlimit:22.9256}.st6{fill-rule:evenodd;clip-rule:evenodd;fill:#6685ee}.st7{fill:none;stroke:#6685ee;stroke-width:.5669;stroke-miterlimit:22.9256}.st8{fill-rule:evenodd;clip-rule:evenodd;fill:#5197f1}.st9{fill:none;stroke:#5197f1;stroke-width:.5669;stroke-miterlimit:22.9256}.st10{fill:#6685ee}</style><g><g><path d="M858.9,205.1c22.7-48.9,46.8-97.9,54.7-151.1c2.7-18.4,7.4-31.8,13.6-41.9L439.7,12l75,325 c-0.3-2.7-0.6-5.6-0.8-8.6c24.5-22.5,81.8-27.2,126.9-33.1L620,205.1H858.9z" class="st0"/><path d="M858.9,205.1c22.7-48.9,46.8-97.9,54.7-151.1c2.7-18.4,7.4-31.8,13.6-41.9L439.7,12l75,325 c-0.3-2.7-0.6-5.6-0.8-8.6c24.5-22.5,81.8-27.2,126.9-33.1L620,205.1H858.9z" class="st1"/><g><path d="M761.8,589.6l42.3-183.3H666.5l-25.6-111c-45.1,5.9-102.3,10.6-126.9,33.1l0.8,8.6l58.3,252.6H761.8z" class="st2"/><path d="M761.8,589.6l42.3-183.3H666.5l-25.6-111c-45.1,5.9-102.3,10.6-126.9,33.1l0.8,8.6l58.3,252.6H761.8z" class="st3"/><path d="M979.5,957.3L1032,730c-86.9-18.3-135.3-49.7-146.7-73.9l-28,121.3H570.5c-2.8,49.3-6.7,117.8-19.7,179.7 L979.5,957.3z" class="st4"/><path d="M979.5,957.3L1032,730c-86.9-18.3-135.3-49.7-146.7-73.9l-28,121.3H570.5c-2.8,49.3-6.7,117.8-19.7,179.7 L979.5,957.3z" class="st5"/><path d="M550.9,957.1c13-62,16.8-130.4,19.7-179.7h-79.4L456.2,626c-38,3.1-17.7,14.3-70.6,20.8 c-28.1,3.5-59.5,9.5-90.3,14.6l68,295.6L550.9,957.1z" class="st6"/><path d="M550.9,957.1c13-62,16.8-130.4,19.7-179.7h-79.4L456.2,626c-38,3.1-17.7,14.3-70.6,20.8 c-28.1,3.5-59.5,9.5-90.3,14.6l68,295.6L550.9,957.1z" class="st7"/><path d="M456.2,626L314.4,12H2.3l44.6,193.2h143.4l105,456.3c30.8-5.1,62.2-11.1,90.3-14.6 C438.5,640.3,418.2,629.1,456.2,626z" class="st4"/><path d="M456.2,626L314.4,12H2.3l44.6,193.2h143.4l105,456.3c30.8-5.1,62.2-11.1,90.3-14.6 C438.5,640.3,418.2,629.1,456.2,626z" class="st5"/><path d="M1032,730l165.7-717.7l-270.5-0.1c-6.3,10.1-10.9,23.5-13.6,41.9c-7.8,53.2-32,102.3-54.7,151.1h130.5 l-98.1,425l-6,25.9C896.7,680.2,945.1,711.6,1032,730z" class="st8"/><path d="M1032,730l165.7-717.7l-270.5-0.1c-6.3,10.1-10.9,23.5-13.6,41.9c-7.8,53.2-32,102.3-54.7,151.1h130.5 l-98.1,425l-6,25.9C896.7,680.2,945.1,711.6,1032,730z" class="st9"/></g></g><g><circle cx="887.8" cy="1096.7" r="91.4" class="st10"/><circle cx="431" cy="1119.5" r="68.5" class="st10"/></g></g></svg>