<?xml version="1.0" encoding="utf-8"?>
<!-- Generator: Adobe Illustrator 25.0.1, SVG Export Plug-In . SVG Version: 6.00 Build 0)  -->
<svg version="1.1" id="Capa_1" xmlns="http://www.w3.org/2000/svg" xmlns:xlink="http://www.w3.org/1999/xlink" x="0px" y="0px"
	 viewBox="0 0 124.3 23.5" style="enable-background:new 0 0 124.3 23.5;" xml:space="preserve">
<style type="text/css">
	.st0{fill:#4895EF;}
	.st1{fill:#FFFFFF;}
</style>
<polygon class="st0" points="0.5,23.5 0.5,20.9 16.1,20.9 16.1,7.8 8.3,7.8 8.3,13 5.7,13 5.7,10.4 5.7,5.2 16.1,5.2 18.7,5.2 
	18.7,10.4 18.7,20.9 18.7,23.5 "/>
<polygon class="st0" points="0.5,0 23.8,0 23.8,20.9 23.8,23.5 21.3,23.5 21.3,20.9 21.3,2.6 3.1,2.6 3.1,15.7 10.9,15.7 10.9,10.4 
	13.5,10.4 13.5,15.7 13.5,18.3 13.5,18.3 3.1,18.3 0.5,18.3 0.5,15.7 "/>
<path class="st1" d="M29.7,22.6c0,0.4,0.3,0.6,0.6,0.6c0.4,0,0.5-0.2,0.5-0.4c0-0.1-0.1-0.3-0.2-0.3c-0.2-0.1-0.4-0.1-0.8-0.2
	c-0.4-0.1-0.6-0.4-0.6-0.7c0-0.5,0.5-0.8,0.9-0.8c0.5,0,1,0.3,1,0.8h-0.4c0-0.3-0.2-0.5-0.6-0.5c-0.2,0-0.5,0.1-0.5,0.3
	c0,0.2,0.1,0.3,0.3,0.3c0,0,0.6,0.2,0.7,0.2c0.3,0.1,0.5,0.4,0.5,0.7c0,0.6-0.5,0.8-1,0.8c-0.6,0-1.1-0.3-1.1-0.9L29.7,22.6z"/>
<path class="st1" d="M34.6,22.2c0,0.7-0.5,1.4-1.2,1.4s-1.2-0.6-1.2-1.4s0.5-1.4,1.2-1.4C34.1,20.8,34.6,21.4,34.6,22.2z M32.6,22.2
	c0,0.5,0.2,1,0.8,1c0.5,0,0.8-0.5,0.8-1s-0.2-1-0.8-1C32.8,21.2,32.6,21.7,32.6,22.2L32.6,22.2z"/>
<path class="st1" d="M35.6,20.9H36v2.2h1.3v0.4h-1.7V20.9z"/>
<path class="st1" d="M38.2,20.9h0.5v1.5c0,0.3,0,0.7,0.6,0.7s0.6-0.4,0.6-0.7v-1.5h0.4v1.6c0,0.7-0.4,1-1,1c-0.6,0-1.1-0.3-1.1-1
	V20.9z"/>
<path class="st1" d="M43.1,21.7c-0.1-0.3-0.3-0.5-0.6-0.5c-0.5,0-0.8,0.5-0.8,1s0.2,1,0.8,1c0.4,0,0.6-0.3,0.7-0.7h0.4
	c0,0.6-0.5,1-1.1,1c-0.8,0-1.2-0.6-1.2-1.4s0.5-1.4,1.2-1.4c0.6,0,1,0.3,1.1,0.9L43.1,21.7z"/>
<path class="st1" d="M44.5,20.9H45v2.6h-0.4V20.9z"/>
<path class="st1" d="M48.5,22.2c0,0.7-0.5,1.4-1.2,1.4c-0.8,0-1.2-0.6-1.2-1.4s0.5-1.4,1.2-1.4C48,20.8,48.5,21.4,48.5,22.2z
	 M46.5,22.2c0,0.5,0.2,1,0.8,1s0.8-0.5,0.8-1s-0.2-1-0.8-1S46.4,21.7,46.5,22.2L46.5,22.2z"/>
<path class="st1" d="M49.4,20.9h0.5l1.2,1.9l0,0v-1.9h0.4v2.6H51l-1.2-1.9h0v1.9h-0.4V20.9z"/>
<path class="st1" d="M52.6,20.9h1.8v0.4h-1.4V22h1.3v0.4h-1.3v0.8h1.4v0.4h-1.9V20.9z"/>
<path class="st1" d="M55.8,22.6c0,0.4,0.3,0.6,0.6,0.6c0.4,0,0.5-0.2,0.5-0.4c0-0.1-0.1-0.3-0.2-0.3c-0.2-0.1-0.4-0.1-0.8-0.2
	c-0.4-0.1-0.6-0.4-0.6-0.7c0-0.5,0.5-0.8,0.9-0.8c0.5,0,1,0.3,1,0.8h-0.4c0-0.3-0.2-0.5-0.6-0.5c-0.2,0-0.5,0.1-0.5,0.3
	c0,0.2,0.1,0.3,0.3,0.3c0,0,0.6,0.2,0.7,0.2c0.3,0.1,0.5,0.4,0.5,0.7c0,0.6-0.5,0.8-1,0.8c-0.6,0-1.1-0.3-1.1-0.9L55.8,22.6z"/>
<path class="st1" d="M60,20.9h1.1c0.7,0,0.9,0.5,0.9,0.8s-0.1,0.8-0.9,0.8h-0.7v1H60V20.9z M60.4,22.1h0.7c0.2,0,0.4-0.1,0.4-0.4
	c0-0.3-0.2-0.4-0.4-0.4h-0.7L60.4,22.1z"/>
<path class="st1" d="M63.5,20.9h0.5l1,2.6h-0.5l-0.2-0.7h-1l-0.2,0.7h-0.5L63.5,20.9z M63.3,22.4h0.8l-0.4-1.1h0L63.3,22.4z"/>
<path class="st1" d="M65.8,20.9H67c0.6,0,0.8,0.3,0.8,0.7c0,0.5-0.3,0.6-0.4,0.7v0c0.2,0,0.4,0.1,0.4,0.5c0,0.3,0,0.6,0.1,0.7h-0.5
	c-0.1-0.1-0.1-0.2-0.1-0.4c0-0.5-0.1-0.7-0.5-0.7h-0.7v1.1h-0.4L65.8,20.9z M66.2,22.1H67c0.3,0,0.4-0.1,0.4-0.4
	c0-0.3-0.2-0.4-0.4-0.4h-0.7L66.2,22.1z"/>
<path class="st1" d="M69.7,20.9h0.5l1,2.6h-0.5l-0.2-0.7h-1l-0.2,0.7h-0.5L69.7,20.9z M69.5,22.4h0.8l-0.4-1.1h0L69.5,22.4z"/>
<path class="st1" d="M73.6,20.9H74v1.5c0,0.3,0,0.7,0.6,0.7s0.6-0.4,0.6-0.7v-1.5h0.4v1.6c0,0.7-0.4,1-1.1,1s-1.1-0.3-1.1-1V20.9z"
	/>
<path class="st1" d="M76.8,20.9h0.5l1.2,1.9h0v-1.9h0.4v2.6h-0.5l-1.2-1.9h0v1.9h-0.4L76.8,20.9z"/>
<path class="st1" d="M80.7,20.9h0.5l1,2.6h-0.5l-0.2-0.7h-1l-0.2,0.7h-0.5L80.7,20.9z M80.5,22.4h0.8l-0.4-1.1h0L80.5,22.4z"/>
<path class="st1" d="M84.6,20.9h0.6l0.7,2h0l0.7-2h0.6v2.6h-0.4v-2h0l-0.7,2h-0.4l-0.7-2h0v2h-0.4L84.6,20.9z"/>
<path class="st1" d="M88.4,20.9h1.8v0.4h-1.4V22h1.3v0.4h-1.3v0.8h1.4v0.4h-1.9V20.9z"/>
<path class="st1" d="M92.6,22.6c0,0.4-0.1,0.9-0.8,0.9c-0.5,0-0.8-0.4-0.8-0.8v-0.1h0.4v0.1c0,0.3,0.1,0.5,0.4,0.5
	c0.3,0,0.4-0.2,0.4-0.5v-1.8h0.5V22.6z"/>
<path class="st1" d="M96.1,22.2c0,0.7-0.5,1.4-1.2,1.4c-0.8,0-1.2-0.6-1.2-1.4s0.5-1.4,1.2-1.4C95.6,20.8,96.1,21.4,96.1,22.2z
	 M94.1,22.2c0,0.5,0.2,1,0.8,1c0.5,0,0.8-0.5,0.8-1s-0.2-1-0.8-1C94.3,21.2,94.1,21.7,94.1,22.2L94.1,22.2z"/>
<path class="st1" d="M97.1,20.9h1.2c0.6,0,0.8,0.3,0.8,0.7c0,0.5-0.3,0.6-0.4,0.7v0c0.2,0,0.4,0.1,0.4,0.5c0,0.3,0,0.6,0.1,0.7h-0.5
	c-0.1-0.1-0.1-0.2-0.1-0.4c0-0.5-0.1-0.7-0.5-0.7h-0.7v1.1h-0.4L97.1,20.9z M97.5,22.1h0.7c0.3,0,0.4-0.1,0.4-0.4
	c0-0.3-0.2-0.4-0.4-0.4h-0.7L97.5,22.1z"/>
<path class="st1" d="M102.1,22.6c0,0.4,0.3,0.6,0.6,0.6c0.4,0,0.5-0.2,0.5-0.4c0-0.1-0.1-0.3-0.2-0.3c-0.2-0.1-0.4-0.1-0.8-0.2
	c-0.4-0.1-0.6-0.4-0.6-0.7c0-0.5,0.5-0.8,0.9-0.8c0.5,0,1,0.3,1,0.8h-0.4c0-0.3-0.2-0.5-0.6-0.5c-0.2,0-0.5,0.1-0.5,0.3
	c0,0.2,0.1,0.3,0.3,0.3c0,0,0.6,0.2,0.7,0.2c0.3,0.1,0.5,0.4,0.5,0.7c0,0.6-0.5,0.8-1,0.8c-0.6,0-1.1-0.3-1.1-0.9L102.1,22.6z"/>
<path class="st1" d="M107,22.2c0,0.7-0.5,1.4-1.2,1.4s-1.2-0.6-1.2-1.4s0.5-1.4,1.2-1.4S107,21.4,107,22.2z M105,22.2
	c0,0.5,0.2,1,0.8,1s0.8-0.5,0.8-1s-0.2-1-0.8-1C105.3,21.2,105,21.7,105,22.2L105,22.2z"/>
<path class="st1" d="M109.8,21.7c-0.1-0.3-0.3-0.5-0.6-0.5c-0.5,0-0.8,0.5-0.8,1s0.2,1,0.8,1c0.4,0,0.6-0.3,0.7-0.7h0.4
	c0,0.6-0.5,1-1.1,1c-0.8,0-1.2-0.6-1.2-1.4s0.5-1.4,1.2-1.4c0.6,0,1,0.3,1.1,0.9H109.8z"/>
<path class="st1" d="M111.2,20.9h0.4v2.6h-0.4V20.9z"/>
<path class="st1" d="M112.8,20.9h1.8v0.4h-1.4V22h1.3v0.4h-1.3v0.8h1.4v0.4h-1.9L112.8,20.9z"/>
<path class="st1" d="M115.6,20.9h1.1c0.8,0,1.1,0.6,1.1,1.3s-0.3,1.3-1.1,1.3h-1.1V20.9z M116.1,23.1h0.4c0.7,0,0.9-0.4,0.9-0.9
	c0-0.5-0.2-0.9-0.9-0.9h-0.4L116.1,23.1z"/>
<path class="st1" d="M119.4,20.9h0.5l1,2.6h-0.5l-0.2-0.7h-1l-0.2,0.7h-0.5L119.4,20.9z M119.2,22.4h0.8l-0.4-1.1h0L119.2,22.4z"/>
<path class="st1" d="M121.5,20.9h1.1c0.8,0,1.1,0.6,1.1,1.3s-0.3,1.3-1.1,1.3h-1.1V20.9z M122,23.1h0.4c0.7,0,0.9-0.4,0.9-0.9
	c0-0.5-0.1-0.9-0.9-0.9H122V23.1z"/>
<path class="st1" d="M34.2,5.2h2.4l5,13.1h-2.4L38,14.8h-5.2l-1.2,3.5h-2.3L34.2,5.2z M33.4,13.1h4l-1.9-5.6h-0.1L33.4,13.1z"/>
<path class="st1" d="M40,5.2h10.5v2h-4.1v11.1h-2.3V7.2H40V5.2z"/>
<path class="st1" d="M52.9,5.2h2.3v5.2H61V5.2h2.3v13.1H61v-5.9h-5.9v5.9h-2.3V5.2z"/>
<path class="st1" d="M65.9,5.2h9.3v2h-7.1v3.4h6.5v1.9h-6.5v3.8h7.2v2h-9.4V5.2z"/>
<path class="st1" d="M78,5.2h2.4l5.9,9.6h0V5.2h2.2v13.1h-2.4l-5.9-9.6h-0.1v9.6H78V5.2z"/>
<path class="st1" d="M91.1,5.2h5.4c4,0,5.7,2.9,5.7,6.5s-1.7,6.5-5.7,6.5h-5.4V5.2z M93.3,16.4h2.2c3.6,0,4.3-2,4.3-4.7
	s-0.8-4.7-4.3-4.7h-2.2V16.4z"/>
<path class="st1" d="M107.6,5.2h2.4l5,13.1h-2.4l-1.2-3.5h-5.2l-1.2,3.5h-2.3L107.6,5.2z M106.8,13.1h4l-1.9-5.6h-0.1L106.8,13.1z"
	/>
<path class="st1" d="M113.3,5.2h10.5v2h-4.1v11.1h-2.3V7.2h-4.1L113.3,5.2z"/>
</svg>
