<?xml version="1.0" encoding="utf-8"?>
<!-- Generator: Adobe Illustrator 25.0.1, SVG Export Plug-In . SVG Version: 6.00 Build 0)  -->
<svg version="1.1" id="Capa_1" xmlns="http://www.w3.org/2000/svg" xmlns:xlink="http://www.w3.org/1999/xlink" x="0px" y="0px"
	 viewBox="0 0 124.3 23.5" style="enable-background:new 0 0 124.3 23.5;" xml:space="preserve">
<style type="text/css">
	.st0{fill-rule:evenodd;clip-rule:evenodd;}
	.st1{stroke:#20B2FF;stroke-width:0.25;stroke-miterlimit:22.9256;}
	.st2{stroke:#0AD4FD;stroke-width:0.25;stroke-miterlimit:22.9256;}
	.st3{stroke:#7E70EA;stroke-width:0.25;stroke-miterlimit:22.9256;}
	.st4{stroke:#6685EE;stroke-width:0.25;stroke-miterlimit:22.9256;}
	.st5{stroke:#5197F1;stroke-width:0.25;stroke-miterlimit:22.9256;}
</style>
<g>
	<g>
		<path class="st0" d="M25.3,4c0.4-1,0.9-1.9,1.1-3c0.1-0.4,0.1-0.6,0.3-0.8h-9.6l1.5,6.4c0-0.1,0-0.1,0-0.2C19,5.9,20.1,5.9,21,5.7
			L20.6,4H25.3z"/>
		<path class="st1" d="M25.3,4c0.4-1,0.9-1.9,1.1-3c0.1-0.4,0.1-0.6,0.3-0.8h-9.6l1.5,6.4c0-0.1,0-0.1,0-0.2C19,5.9,20.1,5.9,21,5.7
			L20.6,4H25.3z"/>
		<g>
			<path class="st0" d="M23.4,11.5l0.8-3.6h-2.7L21,5.7c-0.9,0.1-2,0.2-2.5,0.7v0.2l1.2,5L23.4,11.5L23.4,11.5z"/>
			<path class="st2" d="M23.4,11.5l0.8-3.6h-2.7L21,5.7c-0.9,0.1-2,0.2-2.5,0.7v0.2l1.2,5L23.4,11.5L23.4,11.5z"/>
			<path class="st0" d="M27.7,18.8l1-4.5c-1.7-0.4-2.7-1-2.9-1.5l-0.6,2.4h-5.7c-0.1,1-0.1,2.3-0.4,3.5L27.7,18.8z"/>
			<path class="st3" d="M27.7,18.8l1-4.5c-1.7-0.4-2.7-1-2.9-1.5l-0.6,2.4h-5.7c-0.1,1-0.1,2.3-0.4,3.5L27.7,18.8z"/>
			<path class="st0" d="M19.2,18.8c0.3-1.2,0.3-2.6,0.4-3.5H18l-0.7-3c-0.7,0.1-0.3,0.3-1.4,0.4c-0.6,0.1-1.2,0.2-1.8,0.3l1.3,5.8
				H19.2z"/>
			<path class="st4" d="M19.2,18.8c0.3-1.2,0.3-2.6,0.4-3.5H18l-0.7-3c-0.7,0.1-0.3,0.3-1.4,0.4c-0.6,0.1-1.2,0.2-1.8,0.3l1.3,5.8
				H19.2z"/>
			<path class="st0" d="M17.3,12.3L14.5,0.2H8.4L9.3,4h2.8l2.1,9c0.6-0.1,1.2-0.2,1.8-0.3C17,12.5,16.6,12.3,17.3,12.3z"/>
			<path class="st3" d="M17.3,12.3L14.5,0.2H8.4L9.3,4h2.8l2.1,9c0.6-0.1,1.2-0.2,1.8-0.3C17,12.5,16.6,12.3,17.3,12.3z"/>
			<path class="st0" d="M28.7,14.3L32,0.2h-5.3c-0.1,0.2-0.2,0.5-0.3,0.8c-0.2,1.1-0.6,2-1.1,3h2.6L26,12.4l-0.1,0.5
				C26,13.3,27,14,28.7,14.3z"/>
			<path class="st5" d="M28.7,14.3L32,0.2h-5.3c-0.1,0.2-0.2,0.5-0.3,0.8c-0.2,1.1-0.6,2-1.1,3h2.6L26,12.4l-0.1,0.5
				C26,13.3,27,14,28.7,14.3z"/>
		</g>
	</g>
	<g>
		<circle cx="25.9" cy="21.5" r="1.8"/>
		<circle cx="16.8" cy="22" r="1.4"/>
	</g>
</g>
<g>
	<g>
		<path d="M42,3.5h2l4.1,10.8h-2l-1-2.9h-4.3l-1,2.9h-1.9L42,3.5z M41.4,10h3.3L43,5.3l0,0L41.4,10z"/>
		<path d="M46.8,3.5h8.6v1.6H52v9.1h-1.9V5.1h-3.4V3.5H46.8z"/>
		<path d="M57.4,3.5h1.9v4.3h4.9V3.5H66v10.8h-1.9V9.4h-4.9v4.9h-1.9V3.5H57.4z"/>
		<path d="M68.2,3.5h7.7v1.6H70v2.8h5.4v1.5H70v3.2h6v1.6h-7.8V3.5z"/>
		<path d="M78.1,3.5h2l4.9,7.9l0,0V3.5h1.8v10.8h-2l-4.9-7.9l0,0v7.9h-1.8V3.5z"/>
		<path d="M88.9,3.5h4.4c3.3,0,4.7,2.4,4.7,5.4s-1.4,5.4-4.7,5.4h-4.4V3.5z M90.8,12.7h1.8c2.9,0,3.6-1.7,3.6-3.8S95.5,5,92.6,5
			h-1.8C90.8,5,90.8,12.7,90.8,12.7z"/>
		<path d="M102.5,3.5h2l4.1,10.8h-2l-1-2.9h-4.3l-1,2.9h-1.9L102.5,3.5z M101.9,10h3.3l-1.6-4.6l0,0L101.9,10z"/>
		<path d="M107.3,3.5h8.6v1.6h-3.4v9.1h-1.9V5.1h-3.4V3.5H107.3z"/>
	</g>
	<g>
		<path d="M38,16.6h2.4v0.5h-1.8V18h1.7v0.5h-1.7v1h1.8V20H38V16.6z"/>
		<path d="M44,18.4h1.4v0.5H44V18.4z"/>
		<path d="M51.3,17.7C51.2,17.3,51,17,50.5,17c-0.7,0-1,0.6-1,1.3c0,0.6,0.3,1.3,1,1.3c0.5,0,0.8-0.4,0.8-0.9h0.6
			c0,0.8-0.6,1.3-1.4,1.3c-1,0-1.6-0.8-1.6-1.7c0-1,0.6-1.7,1.6-1.7c0.8,0,1.3,0.4,1.4,1.1C51.9,17.7,51.3,17.7,51.3,17.7z"/>
		<path d="M56.4,18.3c0,1-0.6,1.7-1.6,1.7s-1.6-0.8-1.6-1.7c0-1,0.6-1.7,1.6-1.7C55.8,16.5,56.4,17.3,56.4,18.3z M53.8,18.3
			c0,0.6,0.3,1.3,1,1.3s1-0.6,1-1.3c0-0.6-0.3-1.3-1-1.3S53.8,17.6,53.8,18.3z"/>
		<path d="M57.9,16.6h0.8l0.9,2.6l0,0l0.9-2.6h0.8v3.3h-0.6v-2.6l0,0l-0.9,2.6h-0.5l-0.9-2.6l0,0v2.6h-0.6L57.9,16.6L57.9,16.6z"/>
		<path d="M62.9,16.6h0.8l0.9,2.6l0,0l0.9-2.6h0.8v3.3h-0.6v-2.6l0,0l-0.9,2.6h-0.5l-0.9-2.6l0,0v2.6h-0.6L62.9,16.6L62.9,16.6z"/>
		<path d="M68,16.6h2.4v0.5h-1.8V18h1.7v0.5h-1.7v1h1.8V20H68V16.6z"/>
		<path d="M71.9,16.6h1.6c0.7,0,1.1,0.3,1.1,0.9s-0.4,0.8-0.5,0.8l0,0c0.2,0,0.5,0.2,0.5,0.7c0,0.4,0.1,0.7,0.2,0.9h-0.6
			C74,19.8,74,19.6,74,19.4c0-0.6-0.1-0.9-0.7-0.9h-0.9v1.4h-0.6L71.9,16.6L71.9,16.6z M72.5,18.1h1c0.4,0,0.6-0.2,0.6-0.5
			c0-0.4-0.3-0.5-0.6-0.5h-0.9L72.5,18.1L72.5,18.1z"/>
		<path d="M78.3,17.7C78.2,17.3,78,17,77.5,17c-0.7,0-1,0.6-1,1.3c0,0.6,0.3,1.3,1,1.3c0.5,0,0.8-0.4,0.8-0.9h0.6
			c0,0.8-0.6,1.3-1.4,1.3c-1,0-1.6-0.8-1.6-1.7c0-1,0.6-1.7,1.6-1.7c0.8,0,1.3,0.4,1.4,1.1C78.9,17.7,78.3,17.7,78.3,17.7z"/>
		<path d="M80.4,16.6h2.4v0.5H81V18h1.7v0.5H81v1h1.8V20h-2.4V16.6z"/>
		<path d="M86.9,18.8c0,0.5,0.4,0.7,0.8,0.7c0.5,0,0.7-0.3,0.7-0.5c0-0.3-0.1-0.4-0.3-0.4c-0.2-0.1-0.5-0.1-1-0.3
			c-0.6-0.2-0.7-0.5-0.7-0.8c0-0.7,0.6-1,1.2-1c0.7,0,1.3,0.4,1.3,1.1h-0.6c0-0.4-0.3-0.6-0.7-0.6c-0.3,0-0.6,0.1-0.6,0.4
			c0,0.2,0.2,0.4,0.4,0.4c0.1,0,0.8,0.2,1,0.3c0.4,0.1,0.6,0.5,0.6,0.8c0,0.7-0.7,1-1.3,1c-0.8,0-1.4-0.4-1.4-1.2h0.6V18.8z"/>
		<path d="M93.4,18.3c0,1-0.6,1.7-1.6,1.7s-1.6-0.8-1.6-1.7c0-1,0.6-1.7,1.6-1.7C92.8,16.5,93.4,17.3,93.4,18.3z M90.8,18.3
			c0,0.6,0.3,1.3,1,1.3s1-0.6,1-1.3c0-0.6-0.3-1.3-1-1.3S90.8,17.6,90.8,18.3z"/>
		<path d="M94.9,16.6h0.6v2.8h1.7v0.5h-2.3C94.9,19.9,94.9,16.6,94.9,16.6z"/>
		<path d="M98.5,16.6h0.6v1.9c0,0.4,0,1,0.8,1s0.8-0.5,0.8-1v-1.9h0.6v2.1c0,0.9-0.5,1.3-1.4,1.3c-0.8,0-1.4-0.4-1.4-1.3V16.6z"/>
		<path d="M102.5,16.6h2.7v0.5h-1.1v2.8h-0.6v-2.8h-1.1L102.5,16.6L102.5,16.6z"/>
		<path d="M106.5,16.6h0.6v3.3h-0.6V16.6z"/>
		<path d="M111.7,18.3c0,1-0.6,1.7-1.6,1.7s-1.6-0.8-1.6-1.7c0-1,0.6-1.7,1.6-1.7C111.1,16.5,111.7,17.3,111.7,18.3z M109.1,18.3
			c0,0.6,0.3,1.3,1,1.3s1-0.6,1-1.3c0-0.6-0.3-1.3-1-1.3S109.1,17.6,109.1,18.3z"/>
		<path d="M113.2,16.6h0.6l1.5,2.5l0,0v-2.5h0.6v3.3h-0.6l-1.5-2.4l0,0v2.4h-0.6V16.6z"/>
	</g>
</g>
</svg>
