<svg xmlns="http://www.w3.org/2000/svg" xmlns:xlink="http://www.w3.org/1999/xlink" viewBox="0 0 1128 552"><defs><svg xmlns="http://www.w3.org/2000/svg" id="bi-bank" width="16" height="16" fill="currentColor" viewBox="0 0 16 16"><path d="M8 .95 14.61 4h.89a.5.5 0 0 1 .5.5v2a.5.5 0 0 1-.5.5H15v7a.5.5 0 0 1 .485.379l.5 2A.5.5 0 0 1 15.5 17H.5a.5.5 0 0 1-.485-.621l.5-2A.5.5 0 0 1 1 14V7H.5a.5.5 0 0 1-.5-.5v-2A.5.5 0 0 1 .5 4h.89L8 .95zM3.776 4h8.447L8 2.05 3.776 4zM2 7v7h1V7H2zm2 0v7h2.5V7H4zm3.5 0v7h1V7h-1zm2 0v7H12V7H9.5zM13 7v7h1V7h-1zm2-1V5H1v1h14zm-.39 9H1.39l-.25 1h13.72l-.25-1z"/></svg><svg xmlns="http://www.w3.org/2000/svg" id="bi-bookmark-dash" width="16" height="16" fill="currentColor" viewBox="0 0 16 16"><path fill-rule="evenodd" d="M5.5 6.5A.5.5 0 0 1 6 6h4a.5.5 0 0 1 0 1H6a.5.5 0 0 1-.5-.5z"/><path d="M2 2a2 2 0 0 1 2-2h8a2 2 0 0 1 2 2v13.5a.5.5 0 0 1-.777.416L8 13.101l-5.223 2.815A.5.5 0 0 1 2 15.5V2zm2-1a1 1 0 0 0-1 1v12.566l4.723-2.482a.5.5 0 0 1 .554 0L13 14.566V2a1 1 0 0 0-1-1H4z"/></svg><svg xmlns="http://www.w3.org/2000/svg" id="bi-bookmark-plus" width="16" height="16" fill="currentColor" viewBox="0 0 16 16"><path d="M2 2a2 2 0 0 1 2-2h8a2 2 0 0 1 2 2v13.5a.5.5 0 0 1-.777.416L8 13.101l-5.223 2.815A.5.5 0 0 1 2 15.5V2zm2-1a1 1 0 0 0-1 1v12.566l4.723-2.482a.5.5 0 0 1 .554 0L13 14.566V2a1 1 0 0 0-1-1H4z"/><path d="M8 4a.5.5 0 0 1 .5.5V6H10a.5.5 0 0 1 0 1H8.5v1.5a.5.5 0 0 1-1 0V7H6a.5.5 0 0 1 0-1h1.5V4.5A.5.5 0 0 1 8 4z"/></svg><svg xmlns="http://www.w3.org/2000/svg" id="bi-box-seam" width="16" height="16" fill="currentColor" viewBox="0 0 16 16"><path d="M8.186 1.113a.5.5 0 0 0-.372 0L1.846 3.5l2.404.961L10.404 2l-2.218-.887zm3.564 1.426L5.596 5 8 5.961 14.154 3.5l-2.404-.961zm3.25 1.7-6.5 2.6v7.922l6.5-2.6V4.24zM7.5 14.762V6.838L1 4.239v7.923l6.5 2.6zM7.443.184a1.5 1.5 0 0 1 1.114 0l7.129 2.852A.5.5 0 0 1 16 3.5v8.662a1 1 0 0 1-.629.928l-7.185 2.874a.5.5 0 0 1-.372 0L.63 13.09a1 1 0 0 1-.63-.928V3.5a.5.5 0 0 1 .314-.464L7.443.184z"/></svg><svg xmlns="http://www.w3.org/2000/svg" id="bi-briefcase" width="16" height="16" fill="currentColor" viewBox="0 0 16 16"><path d="M6.5 1A1.5 1.5 0 0 0 5 2.5V3H1.5A1.5 1.5 0 0 0 0 4.5v8A1.5 1.5 0 0 0 1.5 14h13a1.5 1.5 0 0 0 1.5-1.5v-8A1.5 1.5 0 0 0 14.5 3H11v-.5A1.5 1.5 0 0 0 9.5 1h-3zm0 1h3a.5.5 0 0 1 .5.5V3H6v-.5a.5.5 0 0 1 .5-.5zm1.886 6.914L15 7.151V12.5a.5.5 0 0 1-.5.5h-13a.5.5 0 0 1-.5-.5V7.15l6.614 1.764a1.5 1.5 0 0 0 .772 0zM1.5 4h13a.5.5 0 0 1 .5.5v1.616L8.129 7.948a.5.5 0 0 1-.258 0L1 6.116V4.5a.5.5 0 0 1 .5-.5z"/></svg><svg xmlns="http://www.w3.org/2000/svg" id="bi-building" width="16" height="16" fill="currentColor" viewBox="0 0 16 16"><path fill-rule="evenodd" d="M14.763.075A.5.5 0 0 1 15 .5v15a.5.5 0 0 1-.5.5h-3a.5.5 0 0 1-.5-.5V14h-1v1.5a.5.5 0 0 1-.5.5h-9a.5.5 0 0 1-.5-.5V10a.5.5 0 0 1 .342-.474L6 7.64V4.5a.5.5 0 0 1 .276-.447l8-4a.5.5 0 0 1 .487.022zM6 8.694 1 10.36V15h5V8.694zM7 15h2v-1.5a.5.5 0 0 1 .5-.5h2a.5.5 0 0 1 .5.5V15h2V1.309l-7 3.5V15z"/><path d="M2 11h1v1H2v-1zm2 0h1v1H4v-1zm-2 2h1v1H2v-1zm2 0h1v1H4v-1zm4-4h1v1H8V9zm2 0h1v1h-1V9zm-2 2h1v1H8v-1zm2 0h1v1h-1v-1zm2-2h1v1h-1V9zm0 2h1v1h-1v-1zM8 7h1v1H8V7zm2 0h1v1h-1V7zm2 0h1v1h-1V7zM8 5h1v1H8V5zm2 0h1v1h-1V5zm2 0h1v1h-1V5zm0-2h1v1h-1V3z"/></svg><svg xmlns="http://www.w3.org/2000/svg" id="bi-calendar-check" width="16" height="16" fill="currentColor" viewBox="0 0 16 16"><path d="M10.854 8.146a.5.5 0 0 1 0 .708l-3 3a.5.5 0 0 1-.708 0l-1.5-1.5a.5.5 0 0 1 .708-.708L7.5 10.793l2.646-2.647a.5.5 0 0 1 .708 0z"/><path d="M3.5 0a.5.5 0 0 1 .5.5V1h8V.5a.5.5 0 0 1 1 0V1h1a2 2 0 0 1 2 2v11a2 2 0 0 1-2 2H2a2 2 0 0 1-2-2V3a2 2 0 0 1 2-2h1V.5a.5.5 0 0 1 .5-.5zM2 2a1 1 0 0 0-1 1v11a1 1 0 0 0 1 1h12a1 1 0 0 0 1-1V3a1 1 0 0 0-1-1H2z"/><path d="M2.5 4a.5.5 0 0 1 .5-.5h10a.5.5 0 0 1 .5.5v1a.5.5 0 0 1-.5.5H3a.5.5 0 0 1-.5-.5V4z"/></svg><svg xmlns="http://www.w3.org/2000/svg" id="bi-cash-coin" width="16" height="16" fill="currentColor" viewBox="0 0 16 16"><path fill-rule="evenodd" d="M11 15a4 4 0 1 0 0-8 4 4 0 0 0 0 8zm5-4a5 5 0 1 1-10 0 5 5 0 0 1 10 0z"/><path d="M9.438 11.944c.047.596.518 1.06 1.363 1.116v.44h.375v-.443c.875-.061 1.386-.529 1.386-1.207 0-.618-.39-.936-1.09-1.1l-.296-.07v-1.2c.376.043.614.248.671.532h.658c-.047-.575-.54-1.024-1.329-1.073V8.5h-.375v.45c-.747.073-1.255.522-1.255 1.158 0 .562.378.92 1.007 1.066l.248.061v1.272c-.384-.058-.639-.27-.696-.563h-.668zm1.36-1.354c-.369-.085-.569-.26-.569-.522 0-.294.216-.514.572-.578v1.1h-.003zm.432.746c.449.104.655.272.655.569 0 .339-.257.571-.709.614v-1.195l.054.012z"/><path d="M1 0a1 1 0 0 0-1 1v8a1 1 0 0 0 1 1h4.083c.058-.344.145-.678.258-1H3a2 2 0 0 0-2-2V3a2 2 0 0 0 2-2h10a2 2 0 0 0 2 2v3.528c.38.34.717.728 1 1.154V1a1 1 0 0 0-1-1H1z"/><path d="M9.998 5.083 10 5a2 2 0 1 0-3.132 1.65 5.982 5.982 0 0 1 3.13-1.567z"/></svg><svg xmlns="http://www.w3.org/2000/svg" id="bi-coin" width="16" height="16" fill="currentColor" viewBox="0 0 16 16"><path d="M5.5 9.511c.076.954.83 1.697 2.182 1.785V12h.6v-.709c1.4-.098 2.218-.846 2.218-1.932 0-.987-.626-1.496-1.745-1.76l-.473-.112V5.57c.6.068.982.396 1.074.85h1.052c-.076-.919-.864-1.638-2.126-1.716V4h-.6v.719c-1.195.117-2.01.836-2.01 1.853 0 .9.606 1.472 1.613 1.707l.397.098v2.034c-.615-.093-1.022-.43-1.114-.9H5.5zm2.177-2.166c-.59-.137-.91-.416-.91-.836 0-.47.345-.822.915-.925v1.76h-.005zm.692 1.193c.717.166 1.048.435 1.048.91 0 .542-.412.914-1.135.982V8.518l.087.02z"/><path fill-rule="evenodd" d="M8 15A7 7 0 1 0 8 1a7 7 0 0 0 0 14zm0 1A8 8 0 1 0 8 0a8 8 0 0 0 0 16z"/><path fill-rule="evenodd" d="M8 13.5a5.5 5.5 0 1 0 0-11 5.5 5.5 0 0 0 0 11zm0 .5A6 6 0 1 0 8 2a6 6 0 0 0 0 12z"/></svg><svg xmlns="http://www.w3.org/2000/svg" id="bi-cash-stack" width="16" height="16" fill="currentColor" viewBox="0 0 16 16"><path d="M1 3a1 1 0 0 1 1-1h12a1 1 0 0 1 1 1H1zm7 8a2 2 0 1 0 0-4 2 2 0 0 0 0 4z"/><path d="M0 5a1 1 0 0 1 1-1h14a1 1 0 0 1 1 1v8a1 1 0 0 1-1 1H1a1 1 0 0 1-1-1V5zm3 0a2 2 0 0 1-2 2v4a2 2 0 0 1 2 2h10a2 2 0 0 1 2-2V7a2 2 0 0 1-2-2H3z"/></svg><svg xmlns="http://www.w3.org/2000/svg" id="bi-diagram-3" width="16" height="16" fill="currentColor" viewBox="0 0 16 16"><path fill-rule="evenodd" d="M6 3.5A1.5 1.5 0 0 1 7.5 2h1A1.5 1.5 0 0 1 10 3.5v1A1.5 1.5 0 0 1 8.5 6v1H14a.5.5 0 0 1 .5.5v1a.5.5 0 0 1-1 0V8h-5v.5a.5.5 0 0 1-1 0V8h-5v.5a.5.5 0 0 1-1 0v-1A.5.5 0 0 1 2 7h5.5V6A1.5 1.5 0 0 1 6 4.5v-1zM8.5 5a.5.5 0 0 0 .5-.5v-1a.5.5 0 0 0-.5-.5h-1a.5.5 0 0 0-.5.5v1a.5.5 0 0 0 .5.5h1zM0 11.5A1.5 1.5 0 0 1 1.5 10h1A1.5 1.5 0 0 1 4 11.5v1A1.5 1.5 0 0 1 2.5 14h-1A1.5 1.5 0 0 1 0 12.5v-1zm1.5-.5a.5.5 0 0 0-.5.5v1a.5.5 0 0 0 .5.5h1a.5.5 0 0 0 .5-.5v-1a.5.5 0 0 0-.5-.5h-1zm4.5.5A1.5 1.5 0 0 1 7.5 10h1a1.5 1.5 0 0 1 1.5 1.5v1A1.5 1.5 0 0 1 8.5 14h-1A1.5 1.5 0 0 1 6 12.5v-1zm1.5-.5a.5.5 0 0 0-.5.5v1a.5.5 0 0 0 .5.5h1a.5.5 0 0 0 .5-.5v-1a.5.5 0 0 0-.5-.5h-1zm4.5.5a1.5 1.5 0 0 1 1.5-1.5h1a1.5 1.5 0 0 1 1.5 1.5v1a1.5 1.5 0 0 1-1.5 1.5h-1a1.5 1.5 0 0 1-1.5-1.5v-1zm1.5-.5a.5.5 0 0 0-.5.5v1a.5.5 0 0 0 .5.5h1a.5.5 0 0 0 .5-.5v-1a.5.5 0 0 0-.5-.5h-1z"/></svg><svg xmlns="http://www.w3.org/2000/svg" id="bi-download" width="16" height="16" fill="currentColor" viewBox="0 0 16 16"><path d="M.5 9.9a.5.5 0 0 1 .5.5v2.5a1 1 0 0 0 1 1h12a1 1 0 0 0 1-1v-2.5a.5.5 0 0 1 1 0v2.5a2 2 0 0 1-2 2H2a2 2 0 0 1-2-2v-2.5a.5.5 0 0 1 .5-.5z"/><path d="M7.646 11.854a.5.5 0 0 0 .708 0l3-3a.5.5 0 0 0-.708-.708L8.5 10.293V1.5a.5.5 0 0 0-1 0v8.793L5.354 8.146a.5.5 0 1 0-.708.708l3 3z"/></svg><svg xmlns="http://www.w3.org/2000/svg" id="bi-file-earmark-medical" width="16" height="16" fill="currentColor" viewBox="0 0 16 16"><path d="M7.5 5.5a.5.5 0 0 0-1 0v.634l-.549-.317a.5.5 0 1 0-.5.866L6 7l-.549.317a.5.5 0 1 0 .5.866l.549-.317V8.5a.5.5 0 1 0 1 0v-.634l.549.317a.5.5 0 1 0 .5-.866L8 7l.549-.317a.5.5 0 1 0-.5-.866l-.549.317V5.5zm-2 4.5a.5.5 0 0 0 0 1h5a.5.5 0 0 0 0-1h-5zm0 2a.5.5 0 0 0 0 1h5a.5.5 0 0 0 0-1h-5z"/><path d="M14 14V4.5L9.5 0H4a2 2 0 0 0-2 2v12a2 2 0 0 0 2 2h8a2 2 0 0 0 2-2zM9.5 3A1.5 1.5 0 0 0 11 4.5h2V14a1 1 0 0 1-1 1H4a1 1 0 0 1-1-1V2a1 1 0 0 1 1-1h5.5v2z"/></svg><svg xmlns="http://www.w3.org/2000/svg" id="bi-house" width="16" height="16" fill="currentColor" viewBox="0 0 16 16"><path fill-rule="evenodd" d="M2 13.5V7h1v6.5a.5.5 0 0 0 .5.5h9a.5.5 0 0 0 .5-.5V7h1v6.5a1.5 1.5 0 0 1-1.5 1.5h-9A1.5 1.5 0 0 1 2 13.5zm11-11V6l-2-2V2.5a.5.5 0 0 1 .5-.5h1a.5.5 0 0 1 .5.5z"/><path fill-rule="evenodd" d="M7.293 1.5a1 1 0 0 1 1.414 0l6.647 6.646a.5.5 0 0 1-.708.708L8 2.207 1.354 8.854a.5.5 0 1 1-.708-.708L7.293 1.5z"/></svg><svg xmlns="http://www.w3.org/2000/svg" id="bi-layers" width="16" height="16" fill="currentColor" viewBox="0 0 16 16"><path d="M8.235 1.559a.5.5 0 0 0-.47 0l-7.5 4a.5.5 0 0 0 0 .882L3.188 8 .264 9.559a.5.5 0 0 0 0 .882l7.5 4a.5.5 0 0 0 .47 0l7.5-4a.5.5 0 0 0 0-.882L12.813 8l2.922-1.559a.5.5 0 0 0 0-.882l-7.5-4zm3.515 7.008L14.438 10 8 13.433 1.562 10 4.25 8.567l3.515 1.874a.5.5 0 0 0 .47 0l3.515-1.874zM8 9.433 1.562 6 8 2.567 14.438 6 8 9.433z"/></svg><svg xmlns="http://www.w3.org/2000/svg" id="bi-people" width="16" height="16" fill="currentColor" viewBox="0 0 16 16"><path d="M15 14s1 0 1-1-1-4-5-4-5 3-5 4 1 1 1 1h8zm-7.978-1A.261.261 0 0 1 7 12.996c.001-.264.167-1.03.76-1.72C8.312 10.629 9.282 10 11 10c1.717 0 2.687.63 3.24 1.276.593.69.758 1.457.76 1.72l-.008.002a.274.274 0 0 1-.014.002H7.022zM11 7a2 2 0 1 0 0-4 2 2 0 0 0 0 4zm3-2a3 3 0 1 1-6 0 3 3 0 0 1 6 0zM6.936 9.28a5.88 5.88 0 0 0-1.23-.247A7.35 7.35 0 0 0 5 9c-4 0-5 3-5 4 0 .667.333 1 1 1h4.216A2.238 2.238 0 0 1 5 13c0-1.01.377-2.042 1.09-2.904.243-.294.526-.569.846-.816zM4.92 10A5.493 5.493 0 0 0 4 13H1c0-.26.164-1.03.76-1.724.545-.636 1.492-1.256 3.16-1.275zM1.5 5.5a3 3 0 1 1 6 0 3 3 0 0 1-6 0zm3-2a2 2 0 1 0 0 4 2 2 0 0 0 0-4z"/></svg><svg xmlns="http://www.w3.org/2000/svg" id="bi-shop-window" width="16" height="16" fill="currentColor" viewBox="0 0 16 16"><path d="M2.97 1.35A1 1 0 0 1 3.73 1h8.54a1 1 0 0 1 .76.35l2.609 3.044A1.5 1.5 0 0 1 16 5.37v.255a2.375 2.375 0 0 1-4.25 1.458A2.371 2.371 0 0 1 9.875 8 2.37 2.37 0 0 1 8 7.083 2.37 2.37 0 0 1 6.125 8a2.37 2.37 0 0 1-1.875-.917A2.375 2.375 0 0 1 0 5.625V5.37a1.5 1.5 0 0 1 .361-.976l2.61-3.045zm1.78 4.275a1.375 1.375 0 0 0 2.75 0 .5.5 0 0 1 1 0 1.375 1.375 0 0 0 2.75 0 .5.5 0 0 1 1 0 1.375 1.375 0 1 0 2.75 0V5.37a.5.5 0 0 0-.12-.325L12.27 2H3.73L1.12 5.045A.5.5 0 0 0 1 5.37v.255a1.375 1.375 0 0 0 2.75 0 .5.5 0 0 1 1 0zM1.5 8.5A.5.5 0 0 1 2 9v6h12V9a.5.5 0 0 1 1 0v6h.5a.5.5 0 0 1 0 1H.5a.5.5 0 0 1 0-1H1V9a.5.5 0 0 1 .5-.5zm2 .5a.5.5 0 0 1 .5.5V13h8V9.5a.5.5 0 0 1 1 0V13a1 1 0 0 1-1 1H4a1 1 0 0 1-1-1V9.5a.5.5 0 0 1 .5-.5z"/></svg><svg xmlns="http://www.w3.org/2000/svg" id="bi-sliders" width="16" height="16" fill="currentColor" viewBox="0 0 16 16"><path fill-rule="evenodd" d="M11.5 2a1.5 1.5 0 1 0 0 3 1.5 1.5 0 0 0 0-3zM9.05 3a2.5 2.5 0 0 1 4.9 0H16v1h-2.05a2.5 2.5 0 0 1-4.9 0H0V3h9.05zM4.5 7a1.5 1.5 0 1 0 0 3 1.5 1.5 0 0 0 0-3zM2.05 8a2.5 2.5 0 0 1 4.9 0H16v1H6.95a2.5 2.5 0 0 1-4.9 0H0V8h2.05zm9.45 4a1.5 1.5 0 1 0 0 3 1.5 1.5 0 0 0 0-3zm-2.45 1a2.5 2.5 0 0 1 4.9 0H16v1h-2.05a2.5 2.5 0 0 1-4.9 0H0v-1h9.05z"/></svg><svg xmlns="http://www.w3.org/2000/svg" id="bi-truck" width="16" height="16" fill="currentColor" viewBox="0 0 16 16"><path d="M0 3.5A1.5 1.5 0 0 1 1.5 2h9A1.5 1.5 0 0 1 12 3.5V5h1.02a1.5 1.5 0 0 1 1.17.563l1.481 1.85a1.5 1.5 0 0 1 .329.938V10.5a1.5 1.5 0 0 1-1.5 1.5H14a2 2 0 1 1-4 0H5a2 2 0 1 1-3.998-.085A1.5 1.5 0 0 1 0 10.5v-7zm1.294 7.456A1.999 1.999 0 0 1 4.732 11h5.536a2.01 2.01 0 0 1 .732-.732V3.5a.5.5 0 0 0-.5-.5h-9a.5.5 0 0 0-.5.5v7a.5.5 0 0 0 .294.456zM12 10a2 2 0 0 1 1.732 1h.768a.5.5 0 0 0 .5-.5V8.35a.5.5 0 0 0-.11-.312l-1.48-1.85A.5.5 0 0 0 13.02 6H12v4zm-9 1a1 1 0 1 0 0 2 1 1 0 0 0 0-2zm9 0a1 1 0 1 0 0 2 1 1 0 0 0 0-2z"/></svg><svg xmlns="http://www.w3.org/2000/svg" id="bi-upload" width="16" height="16" fill="currentColor" viewBox="0 0 16 16"><path d="M.5 9.9a.5.5 0 0 1 .5.5v2.5a1 1 0 0 0 1 1h12a1 1 0 0 0 1-1v-2.5a.5.5 0 0 1 1 0v2.5a2 2 0 0 1-2 2H2a2 2 0 0 1-2-2v-2.5a.5.5 0 0 1 .5-.5z"/><path d="M7.646 1.146a.5.5 0 0 1 .708 0l3 3a.5.5 0 0 1-.708.708L8.5 2.707V11.5a.5.5 0 0 1-1 0V2.707L5.354 4.854a.5.5 0 1 1-.708-.708l3-3z"/></svg><svg xmlns="http://www.w3.org/2000/svg" id="bi-wallet2" width="16" height="16" fill="currentColor" viewBox="0 0 16 16"><path d="M12.136.326A1.5 1.5 0 0 1 14 1.78V3h.5A1.5 1.5 0 0 1 16 4.5v9a1.5 1.5 0 0 1-1.5 1.5h-13A1.5 1.5 0 0 1 0 13.5v-9a1.5 1.5 0 0 1 1.432-1.499L12.136.326zM5.562 3H13V1.78a.5.5 0 0 0-.621-.484L5.562 3zM1.5 4a.5.5 0 0 0-.5.5v9a.5.5 0 0 0 .5.5h13a.5.5 0 0 0 .5-.5v-9a.5.5 0 0 0-.5-.5h-13z"/></svg></defs></svg>