<svg
    xmlns="http://www.w3.org/2000/svg"
    xmlns:xlink="http://www.w3.org/1999/xlink"
    viewBox="0 0 1128 552">
    <defs>
        <svg id="facebook" enable-background="new 0 0 24 24" height="512" viewBox="0 0 24 24" width="512" xmlns="http://www.w3.org/2000/svg">
            <path d="m15.997 3.985h2.191v-3.816c-.378-.052-1.678-.169-3.192-.169-6.932 0-5.046 7.85-5.322 9h-3.487v4.266h3.486v10.734h4.274v-10.733h3.345l.531-4.266h-3.877c.188-2.824-.761-5.016 2.051-5.016z" fill="#3b5999"/>
        </svg>

        <svg version="1.1" id="google" xmlns="http://www.w3.org/2000/svg" xmlns:xlink="http://www.w3.org/1999/xlink" x="0px" y="0px"
                viewBox="0 0 512 512" style="enable-background:new 0 0 512 512;" xml:space="preserve">
            <path style="fill:#FBBB00;" d="M113.47,309.408L95.648,375.94l-65.139,1.378C11.042,341.211,0,299.9,0,256
                c0-42.451,10.324-82.483,28.624-117.732h0.014l57.992,10.632l25.404,57.644c-5.317,15.501-8.215,32.141-8.215,49.456
                C103.821,274.792,107.225,292.797,113.47,309.408z"/>
            <path style="fill:#518EF8;" d="M507.527,208.176C510.467,223.662,512,239.655,512,256c0,18.328-1.927,36.206-5.598,53.451
                c-12.462,58.683-45.025,109.925-90.134,146.187l-0.014-0.014l-73.044-3.727l-10.338-64.535
                c29.932-17.554,53.324-45.025,65.646-77.911h-136.89V208.176h138.887L507.527,208.176L507.527,208.176z"/>
            <path style="fill:#28B446;" d="M416.253,455.624l0.014,0.014C372.396,490.901,316.666,512,256,512
                c-97.491,0-182.252-54.491-225.491-134.681l82.961-67.91c21.619,57.698,77.278,98.771,142.53,98.771
                c28.047,0,54.323-7.582,76.87-20.818L416.253,455.624z"/>
            <path style="fill:#F14336;" d="M419.404,58.936l-82.933,67.896c-23.335-14.586-50.919-23.012-80.471-23.012
                c-66.729,0-123.429,42.957-143.965,102.724l-83.397-68.276h-0.014C71.23,56.123,157.06,0,256,0
                C318.115,0,375.068,22.126,419.404,58.936z"/>
            <g>
            </g>
            <g>
            </g>
            <g>
            </g>
            <g>
            </g>
            <g>
            </g>
            <g>
            </g>
            <g>
            </g>
            <g>
            </g>
            <g>
            </g>
            <g>
            </g>
            <g>
            </g>
            <g>
            </g>
            <g>
            </g>
            <g>
            </g>
            <g>
            </g>
        </svg>

        <svg version="1.1" id="twitter" xmlns="http://www.w3.org/2000/svg" xmlns:xlink="http://www.w3.org/1999/xlink" x="0px" y="0px"
                viewBox="0 0 512 512" style="enable-background:new 0 0 512 512;" xml:space="preserve">
            <path style="fill:#03A9F4;" d="M512,97.248c-19.04,8.352-39.328,13.888-60.48,16.576c21.76-12.992,38.368-33.408,46.176-58.016
                c-20.288,12.096-42.688,20.64-66.56,25.408C411.872,60.704,384.416,48,354.464,48c-58.112,0-104.896,47.168-104.896,104.992
                c0,8.32,0.704,16.32,2.432,23.936c-87.264-4.256-164.48-46.08-216.352-109.792c-9.056,15.712-14.368,33.696-14.368,53.056
                c0,36.352,18.72,68.576,46.624,87.232c-16.864-0.32-33.408-5.216-47.424-12.928c0,0.32,0,0.736,0,1.152
                c0,51.008,36.384,93.376,84.096,103.136c-8.544,2.336-17.856,3.456-27.52,3.456c-6.72,0-13.504-0.384-19.872-1.792
                c13.6,41.568,52.192,72.128,98.08,73.12c-35.712,27.936-81.056,44.768-130.144,44.768c-8.608,0-16.864-0.384-25.12-1.44
                C46.496,446.88,101.6,464,161.024,464c193.152,0,298.752-160,298.752-298.688c0-4.64-0.16-9.12-0.384-13.568
                C480.224,136.96,497.728,118.496,512,97.248z"/>
            <g>
            </g>
            <g>
            </g>
            <g>
            </g>
            <g>
            </g>
            <g>
            </g>
            <g>
            </g>
            <g>
            </g>
            <g>
            </g>
            <g>
            </g>
            <g>
            </g>
            <g>
            </g>
            <g>
            </g>
            <g>
            </g>
            <g>
            </g>
            <g>
            </g>
        </svg>
    </defs>
</svg>
